<mxfile host="app.diagrams.net" modified="2023-06-23T12:18:21.583Z" agent="Mozilla/5.0 (Windows NT 10.0; Win64; x64) AppleWebKit/537.36 (KHTML, like Gecko) Chrome/114.0.0.0 Safari/537.36" etag="JXqq2MqolP7QlfpIKCeB" version="21.5.0" type="device">
  <diagram name="Page-1" id="xMO0yYCUMaGM0WnXYZ_P">
    <mxGraphModel dx="1050" dy="635" grid="1" gridSize="10" guides="1" tooltips="1" connect="1" arrows="1" fold="1" page="1" pageScale="1" pageWidth="827" pageHeight="1169" math="0" shadow="0">
      <root>
        <mxCell id="0" />
        <mxCell id="1" parent="0" />
        <mxCell id="WvF7RyvEcf7BSZBnfnLI-1" value="Customer" style="shape=umlActor;verticalLabelPosition=bottom;verticalAlign=top;html=1;outlineConnect=0;" vertex="1" parent="1">
          <mxGeometry x="70" y="230" width="30" height="60" as="geometry" />
        </mxCell>
        <mxCell id="WvF7RyvEcf7BSZBnfnLI-2" value="Withdraw Money" style="ellipse;whiteSpace=wrap;html=1;" vertex="1" parent="1">
          <mxGeometry x="300" y="110" width="140" height="70" as="geometry" />
        </mxCell>
        <mxCell id="WvF7RyvEcf7BSZBnfnLI-3" value="validate Pin" style="ellipse;whiteSpace=wrap;html=1;" vertex="1" parent="1">
          <mxGeometry x="550" y="30" width="110" height="50" as="geometry" />
        </mxCell>
        <mxCell id="WvF7RyvEcf7BSZBnfnLI-5" value="&amp;lt;&amp;lt;include&amp;gt;&amp;gt;" style="edgeStyle=none;html=1;endArrow=open;verticalAlign=bottom;dashed=1;labelBackgroundColor=none;rounded=0;entryX=0.036;entryY=0.656;entryDx=0;entryDy=0;entryPerimeter=0;exitX=1;exitY=0.5;exitDx=0;exitDy=0;" edge="1" parent="1" source="WvF7RyvEcf7BSZBnfnLI-2">
          <mxGeometry width="160" relative="1" as="geometry">
            <mxPoint x="440" y="134.5" as="sourcePoint" />
            <mxPoint x="563.96" y="62.799999999999955" as="targetPoint" />
          </mxGeometry>
        </mxCell>
        <mxCell id="WvF7RyvEcf7BSZBnfnLI-6" value="" style="edgeStyle=none;html=1;endArrow=none;verticalAlign=bottom;rounded=0;entryX=0;entryY=0.5;entryDx=0;entryDy=0;exitX=1;exitY=0.3333333333333333;exitDx=0;exitDy=0;exitPerimeter=0;" edge="1" parent="1" source="WvF7RyvEcf7BSZBnfnLI-1" target="WvF7RyvEcf7BSZBnfnLI-2">
          <mxGeometry width="160" relative="1" as="geometry">
            <mxPoint x="70" y="190" as="sourcePoint" />
            <mxPoint x="250" y="220" as="targetPoint" />
          </mxGeometry>
        </mxCell>
        <mxCell id="WvF7RyvEcf7BSZBnfnLI-7" value="Deposit Money" style="ellipse;whiteSpace=wrap;html=1;" vertex="1" parent="1">
          <mxGeometry x="300" y="220" width="140" height="70" as="geometry" />
        </mxCell>
      </root>
    </mxGraphModel>
  </diagram>
</mxfile>
